<svg width="16" height="10" xmlns="http://www.w3.org/2000/svg" xmlns:xlink="http://www.w3.org/1999/xlink" xmlns:svgjs="http://svgjs.com/svgjs"><svg xmlns="http://www.w3.org/2000/svg" width="16" height="10" viewBox="0 -0.001 16 10" fill="#afa5a3"><path fill="#AFA5A3" paint-order="stroke fill markers" fill-rule="evenodd" d="M15.14.027L15 0H1L.914.017 8.002 6.33 15.14.027zm.791.637s.04.105-5.04 4.45c0 0 5.08-4.345 4.976 4.354a.964.964 0 0 0 .133-.47v-8c0-.118-.03-.229-.069-.334zM.078.612C.029.731 0 .862 0 .999v8c0 .145.035.282.092.407 0 0-.057-.125 5.023-4.307L.078.612zm7.92 7.055L5.869 5.77.947 9.988l.053.01h13.955l-4.82-4.217-2.137 1.886z"/></svg></svg>