<svg width="16" height="16" xmlns="http://www.w3.org/2000/svg" xmlns:xlink="http://www.w3.org/1999/xlink" xmlns:svgjs="http://svgjs.com/svgjs"><svg xmlns="http://www.w3.org/2000/svg" width="16" height="16" viewBox="0 -0.001 16 16" fill="#afa5a3"><path fill="#AFA5A3" paint-order="stroke fill markers" fill-rule="evenodd" d="M16 2.665C16 1.265 14.734 0 13.334 0H2.667C1.265-.001 0 1.265 0 2.665v10.668c0 1.401 1.265 2.666 2.667 2.666H8V9.956H6.045V7.288H8v-1.04c0-1.79 1.346-3.405 3-3.405h2.156v2.668H11c-.236 0-.51.286-.51.715v1.062h2.666v2.668H10.49v6.043h2.845c1.4 0 2.666-1.265 2.666-2.666V2.665z"/></svg></svg>