<svg width="16" height="16" xmlns="http://www.w3.org/2000/svg" xmlns:xlink="http://www.w3.org/1999/xlink" xmlns:svgjs="http://svgjs.com/svgjs"><svg xmlns="http://www.w3.org/2000/svg" width="16" height="16" viewBox="0 -0.001 16 16" fill="#afa5a3"><path fill="#AFA5A3" paint-order="stroke fill markers" fill-rule="evenodd" d="M14.818-.001H1.183C.53-.001 0 .513 0 1.145v13.707C0 15.486.53 16 1.183 16h13.635c.655 0 1.182-.513 1.182-1.147V1.145C16 .513 15.473 0 14.818 0zM4.851 13.393H2.434V6.168H4.85v7.225zM3.642 5.182h-.015c-.81 0-1.337-.555-1.337-1.249 0-.707.542-1.248 1.368-1.248.827 0 1.336.54 1.352 1.248 0 .694-.525 1.249-1.368 1.249zm9.924 8.211h-2.418V9.528c0-.972-.35-1.635-1.223-1.635-.67 0-1.066.447-1.24.879-.064.154-.082.37-.082.586v4.035H6.19s.03-6.547 0-7.225h2.414v1.025c.322-.492.895-1.194 2.179-1.194 1.59 0 2.784 1.032 2.784 3.252v4.142zM8.59 7.215c.004-.006.01-.014.013-.022v.022H8.59z"/></svg></svg>