<svg width="16" height="12" xmlns="http://www.w3.org/2000/svg" xmlns:xlink="http://www.w3.org/1999/xlink" xmlns:svgjs="http://svgjs.com/svgjs" viewBox="0 0.609 16 10.781"><svg xmlns="http://www.w3.org/2000/svg" width="16" height="12" viewBox="0 0.787 16 10.781" fill="#afa5a3"><path fill="#AFA5A3" paint-order="stroke fill markers" fill-rule="evenodd" d="M14.187 5.58c.897-.072 1.507-.471 1.742-1.014-.324.195-1.33.41-1.886.204a6.584 6.584 0 0 0-.087-.357c-.425-1.523-1.873-2.747-3.393-2.598.122-.047.247-.096.372-.135.168-.057 1.149-.214.995-.554-.131-.297-1.33.225-1.555.294.297-.11.79-.297.844-.633a2.387 2.387 0 0 0-1.252.58.842.842 0 0 0 .24-.465c-1.218.76-1.929 2.294-2.504 3.782-.452-.43-.853-.766-1.211-.953-1.009-.529-2.215-1.08-4.106-1.767-.058.612.308 1.427 1.368 1.968-.229-.03-.649.037-.984.114.136.703.583 1.28 1.792 1.56-.552.036-.838.158-1.097.423.252.487.866 1.062 1.97.944-1.227.518-.5 1.476.499 1.334C4.23 10.027 1.543 9.902 0 8.46c4.027 5.37 12.785 3.177 14.09-1.996.978.01 1.553-.333 1.91-.705-.565.094-1.381-.004-1.813-.18z"/></svg></svg>